/* XPM */
static char *gnomeradio[] = {
/* columns rows colors chars-per-pixel */
"32 32 152 2 ",
"   c #840000",
".  c #8D0000",
"X  c #9D0000",
"o  c #960E0E",
"O  c #990F0F",
"+  c #971111",
"@  c #991212",
"#  c #A50101",
"$  c #A90303",
"%  c #AA0A0A",
"&  c #BE0303",
"*  c #B60909",
"=  c #AD1010",
"-  c #AF1818",
";  c #B31616",
":  c #B21C1C",
">  c #9E3332",
",  c #B72424",
"<  c #BA2424",
"1  c #B32929",
"2  c #BB2B2B",
"3  c #BA3333",
"4  c #C10404",
"5  c #C20A0A",
"6  c #CB0C0C",
"7  c #C51717",
"8  c #CE1414",
"9  c #C51C1C",
"0  c #CC1A1A",
"q  c #D41313",
"w  c #D81717",
"e  c #D51B1B",
"r  c #DD1B1B",
"t  c #E01E1E",
"y  c #C22B2B",
"u  c #CA2828",
"i  c #D62020",
"p  c #DC2222",
"a  c #DB2D2D",
"s  c #C43535",
"d  c #CB3434",
"f  c #C53D3D",
"g  c #CD3B3B",
"h  c #D23636",
"j  c #DC3232",
"k  c #D23C3C",
"l  c #DB3838",
"z  c #E42121",
"x  c #E92626",
"c  c #E42B2B",
"v  c #EB2E2E",
"b  c #EC3131",
"n  c #E43E3E",
"m  c #ED3D3D",
"M  c #C35603",
"N  c #CC5F0C",
"B  c #925854",
"V  c #C44444",
"C  c #CB4242",
"Z  c #CF4F4F",
"A  c #D04747",
"S  c #DC4545",
"D  c #D54E4E",
"F  c #DE4F4F",
"G  c #CD5252",
"H  c #D35454",
"J  c #D95050",
"K  c #DD5E5E",
"L  c #E64343",
"P  c #EE4242",
"I  c #E24B4B",
"U  c #EF4B4B",
"Y  c #E25454",
"T  c #EE5454",
"R  c #E55959",
"E  c #EB5A5A",
"W  c #C86B6A",
"Q  c #D66464",
"!  c #DB6464",
"~  c #DA6B6B",
"^  c #D77272",
"/  c #DE7272",
"(  c #E16565",
")  c #E36E6E",
"_  c #EB6969",
"`  c #F16464",
"'  c #F26C6C",
"]  c #E37171",
"[  c #EC7272",
"{  c #E27878",
"}  c #EA7B7B",
"|  c #F27272",
" . c #F37D7D",
".. c #C59E01",
"X. c #C4A000",
"o. c #D6C004",
"O. c #DCC610",
"+. c #E2CC1A",
"@. c #DEC921",
"#. c #E8D328",
"$. c #EDD932",
"%. c #EDDD5C",
"&. c #F4E040",
"*. c #F7E249",
"=. c #F9E64A",
"-. c #FCE94F",
";. c #FDED6D",
":. c #F6E97D",
">. c #8F8B86",
",. c #8D8F8A",
"<. c #998E8A",
"1. c #8E908B",
"2. c #98918D",
"3. c #999490",
"4. c #B48783",
"5. c #B98784",
"6. c #BC9794",
"7. c #B9BAB6",
"8. c #BABBB8",
"9. c #C0928F",
"0. c #C29391",
"q. c #CD9D9C",
"w. c #E98B8B",
"e. c #F48383",
"r. c #F48B8B",
"t. c #E69696",
"y. c #EA9090",
"u. c #E99C9C",
"i. c #F69595",
"p. c #F59B9B",
"a. c #F6A4A4",
"s. c #F9A6A6",
"d. c #F5A9A9",
"f. c #F9ACAC",
"g. c #F9B4B4",
"h. c #F7BEBE",
"j. c #FABDBD",
"k. c #F8EC8E",
"l. c #F2E891",
"z. c #FBF09F",
"x. c #C2C2BF",
"c. c #F3EBAF",
"v. c #C5C6C2",
"b. c #CCCCC9",
"n. c #FAC3C3",
"m. c #FBCCCC",
"M. c #FBD3D3",
"N. c #FCDADA",
"B. c #FAF6DA",
"V. c #FDFADD",
"C. c gray100",
"Z. c None",
/* pixels */
"Z.Z.Z.Z.Z.Z.Z.,.,.Z.Z.Z.Z.Z.Z.Z.Z.Z.Z.Z.Z.Z.Z.Z.,.,.Z.Z.Z.Z.Z.Z.",
"Z.Z.Z.Z.Z.Z.,.b.b.,.Z.Z.Z.Z.Z.Z.Z.Z.Z.Z.Z.Z.Z.,.b.b.,.Z.Z.Z.Z.Z.",
"Z.Z.Z.Z.Z.Z.,.v.v.,.Z.Z.Z.Z.Z.Z.Z.Z.Z.Z.Z.Z.Z.1.v.v.,.Z.Z.Z.Z.Z.",
"Z.Z.Z.Z.Z.Z.Z.,.1.8.1.Z.Z.Z.Z.Z.Z.Z.Z.Z.Z.Z.1.8.,.1.Z.Z.Z.Z.Z.Z.",
"Z.Z.Z.Z.Z.Z.Z.Z.Z.,.v.1.Z.Z.Z.Z.Z.Z.Z.Z.Z.1.v.1.Z.Z.Z.Z.Z.Z.Z.Z.",
"Z.Z.Z.Z.Z.Z.Z.Z.Z.Z.1.v.,.Z.Z.Z.Z.Z.Z.Z.1.v.1.Z.Z.Z.Z.Z.Z.Z.Z.Z.",
"Z.Z.Z.Z.Z.Z.Z.Z.Z.Z.Z.1.v.1.Z.Z.Z.Z.Z.1.v.1.Z.Z.Z.Z.Z.Z.Z.Z.Z.Z.",
"Z.Z.Z.Z.Z.Z.Z.Z.Z.Z.Z.Z.1.v.>.> # > 1.v.1.Z.Z.Z.Z.Z.Z.Z.Z.Z.Z.Z.",
"Z.Z.Z.Z.Z.Z.Z.Z.Z.Z.Z.Z.B >.8.2.n.2.8.>.Z.Z.Z.Z.Z.Z.Z.Z.Z.Z.Z.Z.",
"Z.Z.Z.Z.Z.Z.$ % $ # # # $ q.3.6.e.5.<.W $ # # # % $ Z.Z.Z.Z.Z.Z.",
"Z.Z.Z.Z.% : Q t.h.m.m.m.= ) d.a.p.e.' l = m.m.n.u.^ 3 % Z.Z.Z.Z.",
"Z.Z.Z.% V n.j.g.f.s.s.s./ : % $ # % % ; ~ i.i.p.a.f.j.G $ Z.Z.Z.",
"Z.Z.% G h.d.f.n.M.N.N.N.M.M.M.M.m.m.m.m.n.n.n.g.s.i.r.f.Q $ Z.Z.",
"Z.Z.- g.a.m.j.g.a.p.i.i.r.( D g g D ! r.i.r.i.i.p.a.d. .a., Z.Z.",
"Z.% ! d.n.a.r.r.r.e.r.[ g s 3 3 3 3 s d _ e.e.e. . .r.p.r.] $ Z.",
"Z.$ d.n.r.e. . . . .[ d [ r.r.r.e.r.r.[ h _ | | | | '  .i.p.% Z.",
"Z.C g.r.' ' ' ' ' | k 2 1 1 1 1 1 1 1 1 2 k | ` ` ` ` ` | i.A Z.",
"$ ) g.U U U U U T U 7 E ' ' ' ' | | | ' _ u | E T T T T T e.K $ ",
"$ y. .P P P P m m m & $ # # # # # # # $ $ 5 ` m P P P P P ' [ $ ",
"$ p.` b b b b v v v 6 a U U U U U U U U a 8 T x x x x x x n [ $ ",
"$ d.n x v x x x x x t 4 $ # # # # # # $ & I L z z z z z t c e.# ",
"# d.v z z z x t t x t w 4 0 a n n j 0 & l T r t r r r r r z } # ",
"$ w.L t p t t r t r t t p 8 5 4 & 6 0 R I p w w w w q w q j K # ",
"# ! R r p R _ I r w w w w p j S Y J I j q q i F ( F e q q S C # ",
"Z.C { w Y d O @ y q N ....X...X.X.X.X.....N F s O @ y 6 6 K < Z.",
"Z.# / S ( o q.0.@ 6 ..*.-.-.&.#.O.@.%.k.z...! O q.0.+ 6 h H $ Z.",
"Z.Z.; { J + 0.4.+ 6 X.-.-.=.$.+.o.+.$.=.C...g O 0.4.o 7 ! % Z.Z.",
"Z.Z.# y / G @ o * 4 ..=.;.:.l.c.B.C.C.C.V...5 , + o s Q , # Z.Z.",
"Z.Z.Z.# % H H d 9 5 M X.X.X.X.X.X.X.X.X...M & 9 d H Z % # Z.Z.Z.",
"Z.Z.Z.Z.. # , f G Q ! ~ ~ ^ ~ ! ~ ~ ~ ~ ^ ! ~ G f , #   Z.Z.Z.Z.",
"Z.Z.Z.Z.Z.Z.Z.X # # # # # # # # # # # # # # # # X Z.Z.Z.Z.Z.Z.Z.",
"Z.Z.Z.Z.Z.Z.Z.Z.Z.Z.Z.Z.Z.Z.Z.Z.Z.Z.Z.Z.Z.Z.Z.Z.Z.Z.Z.Z.Z.Z.Z.Z."
};
